<svg id="Layer_1" data-name="Layer 1" xmlns="http://www.w3.org/2000/svg" viewBox="0 0 1024 768">
  <defs>
    <style>.cls-1,.cls-5{fill:#fff;}.cls-2{fill:#2b475e;}.cls-3,.cls-6{fill:#ffd43d;}.cls-4{fill:#deb935;}.cls-5{font-size:232.67px;}.cls-5,.cls-6{font-family:LilitaOne, Lilita One;}.cls-6{font-size:177.77px;}.cls-7{fill:#c0d0d2;}</style>
  </defs>
  
  <title>logo</title>

  <path id="bulb" class="cls-1" d="M672.7,113.05a83.46,83.46,0,1,0-144.11,57.26c16.14,17,24.64,39.93,24.64,63.55v4.24h70.19v-3.22c0-24.13,9.86-46.9,26.34-64.4A82.78,82.78,0,0,0,672.7,113.05Z"/>

  <path id="bulb-line" class="cls-2" d="M603.36,236.75A515.5,515.5,0,0,1,601,183.22c0-13.25.34-26.67,2.88-39.59.85-4.75,2-9.85,4.42-14.1,1.36-2.38,3.4-5.44,5.61-7,9.18-6.28,13.6,3.57,15.13,10.71,2.38,10.36-.51,22.09-9.86,28.2-7.31,4.76-16.83,5.95-25.32,6.12-16.15.34-39.09-.17-45.21-18.18-2.38-7-2.38-25.32,6.8-28.55,8.16-2.88,13.93,8.84,15.8,14.62,3.74,11.72,4.25,24.46,4.59,36.7a514,514,0,0,1-2.21,64.74c-.34,4.41,6.46,4.24,6.8,0,2.55-26.17,3.74-53,1.36-79.35-1.19-13.09-2.55-28-12.07-38.06-16.82-17.68-30.25,7.81-29.06,24,1.87,23.62,23.8,29.91,44,30.93,16.83.85,38.41-1,47.76-17.16,4.75-8.33,5.43-18.69,2.72-27.87-2.21-7.31-8-16.82-16.83-16-15,1.19-20.05,20.56-21.75,32.28-4.59,29.74-2.89,61.17,0,91.08C596.91,241,603.7,241.16,603.36,236.75Z"/>

  <g id="bulb-bottom">
    <path class="cls-3" d="M588.41,294.52a35.14,35.14,0,0,1-35.18-35.18V237.93h70.19v21.41A35,35,0,0,1,588.41,294.52Z"/>
    <rect class="cls-4" x="553.23" y="238.1" width="70.19" height="9.01"/>
  </g>

  <text class="cls-5" transform="translate(330.38 504.76)">M</text>
  <text class="cls-5" transform="translate(562.27 504.76)">S</text>
  <text class="cls-5" transform="translate(706.74 504.76)">T</text>
  <text class="cls-6" transform="translate(273.11 699.46)">S</text>
  <text class="cls-6" transform="translate(383.44 699.46)">T</text>
  <text class="cls-6" transform="translate(488.62 699.46)">E</text>
  <text class="cls-6" transform="translate(592.21 699.46)">A</text>
  <text class="cls-6" transform="translate(724.6 699.46)">M</text>

  <path id="right-yellow-cross" class="cls-3" d="M974.71,224.56H964V213.88a10.08,10.08,0,1,0-20.16,0v10.68H933.18a10.08,10.08,0,1,0,0,20.16h10.68v10.69a10.08,10.08,0,1,0,20.16,0V244.72h10.69a10,10,0,0,0,10.08-10.08A10.11,10.11,0,0,0,974.71,224.56Z"/>

  <path id="right-grey-cross" class="cls-7" d="M869.48,90.3H858.79V79.62a10.08,10.08,0,1,0-20.16,0V90.3H828a10.08,10.08,0,0,0,0,20.16h10.68v10.68a10.08,10.08,0,1,0,20.16,0V110.46h10.69a10,10,0,0,0,10.07-10.08A10.11,10.11,0,0,0,869.48,90.3Z"/>

  <path id="left-white-cross" class="cls-1" d="M361.46,162.87H350.77V152.19a10.08,10.08,0,0,0-20.16,0v10.68H319.93a10.08,10.08,0,1,0,0,20.16h10.68v10.69a10.08,10.08,0,0,0,20.16,0V183h10.69A10,10,0,0,0,371.54,173,10.11,10.11,0,0,0,361.46,162.87Z"/>

  <path id="left-grey-cross" class="cls-7" d="M198.17,90.3H187.48V79.62a10.08,10.08,0,1,0-20.16,0V90.3H156.64a10.08,10.08,0,1,0,0,20.16h10.68v10.68a10.08,10.08,0,1,0,20.16,0V110.46h10.69a10,10,0,0,0,10.08-10.08A10.11,10.11,0,0,0,198.17,90.3Z"/>

  <path id="left-yellow-cross" class="cls-3" d="M89.3,224.56H78.62V213.88a10.08,10.08,0,0,0-20.16,0v10.68H47.78a10.08,10.08,0,0,0,0,20.16H58.46v10.69a10.08,10.08,0,0,0,20.16,0V244.72H89.3a10,10,0,0,0,10.08-10.08A10.11,10.11,0,0,0,89.3,224.56Z"/>
</svg>
