<svg id="Layer_1" data-name="Layer 1" xmlns="http://www.w3.org/2000/svg" viewBox="0 0 183 109"><defs><style>.cls-1{fill:#404040;}.cls-2{fill:#fff;}.cls-3{fill:#ffd43d;}.cls-4{fill:#fea621;}.cls-5{fill:#0a0a0a;}.cls-6{fill:#e51522;}.cls-7{fill:#ff9b08;}</style></defs><title>cab</title><path class="cls-1" d="M35.57,47.67s6.87-29.55,25.71-29.32,35.64-.11,51,0c19.6-.11,24.27,22.81,26.13,29.32C110.69,47,35.57,47.67,35.57,47.67Z"/><rect class="cls-2" x="68.23" width="37.55" height="15.02"/><path class="cls-3" d="M173.63,47.28H144.32C142,38,136.12,14.52,115.75,14.65c-17.09-.14-35.73.27-56.65,0C41,14.41,32.83,40.35,31,47.28H9.51a3.89,3.89,0,0,0-3.88,3.88V86.82A3.89,3.89,0,0,0,9.51,90.7H173.63a3.89,3.89,0,0,0,3.88-3.88V51.16A3.89,3.89,0,0,0,173.63,47.28ZM61.41,18c10.73.14,20.8.08,30.32,0V47c-28.1.05-56,.31-56,.31S42.57,17.72,61.41,18ZM95.68,47V18c5.78,0,11.37-.05,16.77,0,19.6-.11,24.27,22.81,26.13,29.33C128.54,47,112.32,47,95.68,47Z"/><rect class="cls-4" x="0.26" y="80.71" width="182.95" height="10.39" rx="3.3" ry="3.3"/><circle class="cls-5" cx="42.59" cy="92.15" r="16.38"/><circle class="cls-2" cx="42.59" cy="92.15" r="9.39"/><circle class="cls-5" cx="139.44" cy="92.15" r="16.38"/><circle class="cls-2" cx="139.44" cy="92.15" r="9.39"/><path class="cls-6" d="M12.3,56.87v-9.2H9.12a3.9,3.9,0,0,0-3.88,3.89v5.31Z"/><rect class="cls-2" x="172.85" y="55.83" width="4.65" height="7.25"/><rect class="cls-7" x="159.65" y="55.83" width="10.62" height="7.25"/></svg>