<?xml version="1.0" encoding="utf-8"?>
<!-- Generator: Adobe Illustrator 22.1.0, SVG Export Plug-In . SVG Version: 6.00 Build 0)  -->
<svg version="1.1" id="Layer_1" xmlns="http://www.w3.org/2000/svg" xmlns:xlink="http://www.w3.org/1999/xlink" x="0px" y="0px"
	 viewBox="0 0 893 276" style="enable-background:new 0 0 893 276;" xml:space="preserve">
<style type="text/css">
	.st0{opacity:0.5;}
	.st1{fill:#003B5D;}
	.st2{fill:#005CB9;}
	.st3{fill:#00A1E1;}
	.st4{fill:#6BC5EA;}
	.st5{fill:#FFE806;}
	.st6{fill:#FFB717;}
	.st7{fill:#97DAEB;}
	.st8{fill:#00A6D0;}
	.st9{fill:#00829C;}
	.st10{fill:#004A87;}
</style>
<g class="st0">
	<polygon class="st1" points="374.7,273.8 22.6,0.6 0,0.6 352,273.8 	"/>
	<polygon class="st2" points="416.3,274.5 63.3,0.6 40.6,0.6 393.6,274.5 	"/>
	<polygon class="st3" points="455.5,274.5 101.7,0.6 79,0.6 432.8,274.5 	"/>
	<polygon class="st4" points="494.7,274.5 141.6,0.6 119,0.6 472,274.5 	"/>
	<polygon class="st5" points="533.9,274.5 180.9,0.6 158.2,0.6 511.3,274.5 	"/>
</g>
<g class="st0">
	<polygon class="st6" points="515.2,275.3 870.2,-0.1 893,-0.1 538.1,275.3 	"/>
	<polygon class="st7" points="473.3,276 829.2,-0.1 852,-0.1 496.1,276 	"/>
	<polygon class="st8" points="433.8,276 790.5,-0.1 813.3,-0.1 456.6,276 	"/>
	<polygon class="st9" points="394.2,276 750.2,-0.1 773,-0.1 417.1,276 	"/>
	<polygon class="st10" points="354.7,276 710.6,-0.1 733.5,-0.1 377.5,276 	"/>
</g>
</svg>
