<svg id="Layer_1" data-name="Layer 1" xmlns="http://www.w3.org/2000/svg" viewBox="0 0 1920 1080"><defs><style>.cls-1{fill:#003b5d;}.cls-2{fill:#111;opacity:0.15;}</style></defs><title>background</title><rect class="cls-1" y="-0.97" width="1920" height="1081.44"/><path class="cls-2" d="M1920,589.7c-38.83,1-80.64-10.39-114.74-29a250.74,250.74,0,0,1-47.57-33.45c-12.25-11.17-23.7-23.65-31.44-37.74l-.63-10.07L1701,471.37l-5.25,4.6-34.26-11.11-.24-8.33-30.53-10.11-6,6.5-34.6-11.24-3.82-8.13-30.7-10.13-18.14,25.1-.39,10.76,2.39,7a501.15,501.15,0,0,1-26.35,85.48c-14.18,33.65-32.07,66.9-58.88,90.84a104.45,104.45,0,0,1-9.51,7.44c-31.28-6.42-61-21.51-86.7-40.93l.25-.73-.32-5.25-12.79-4.22-2.74,2.4-17.79-5.78-.13-4.33-15.85-5.26-3.13,3.38-18-5.83-2-4.24-16-5.26-9.44,13-.2,5.58.66,1.92a243.5,243.5,0,0,1-34.3,63.39c-10.3,13.57-22.3,26.23-36.08,36.29V619.74h-49.92V695h-2V675.42h-12.22V591.17h-39.21V695h-7.11v24.5h-6.48V542.2h-54.06V643H1005.9V503.3H965.73V719.48H952.42V566.72L890,554.23V662.59h-13.3V529.23l-43.45-41.65h-8.76l-43.44,41.65V719.48h-13.3v-271l-9.15-250H742v-9.71H723.29V44.41H712.2V188.82H693.5v9.71H676.87l-9.15,250V632.24h-13.3V519.52L592,440.36v90.26h-43V719.48h-13.3V654.21H495.57v28H482.26v-45.4L456.45,595.2h-5.19l-25.81,41.65v82.63H412.14V688.92H389V614.38H337.3V734.85H311.89c-.15-19.09-.54-16.76-1.25-35.84-.26-7-7.63-60.21-3.91-62.7a5.37,5.37,0,0,1,2-.76c.74,0,1-1,1-4,2-.26,4.19-1.73,4.2-2.48,0-5.79-8-70.35-9.41-70.05,5.45-1.22,7.43-18.86,7.43-18.86s7.44-12.42,10.92-18.86c3.71-.52,7.68-5,10.91-8.21s7.92-11.41,7.92-11.41,3.47-2.74,4.21-4,2-3.22,1.24-4.48-3.47-5.45-3.47-5.45l4.71-8.94-2.22-2.25,3.71-3.21-2.48-3-33-14.14-1,5.2-3.71-.49-8.93,13.39s-7.94-7.19-12.14-9.7c-2.34-9.2-3.92-19-7.6-27.82-3.51-8.39-9.58-10-14-16.1L265.82,419l-.73-2.24L262.86,415l-3.72-18.61,2.23-3-4.72-17.64,4.72-1-2.73-10.43s.26-.8.56-2l30.08-1.16-28.85-5.65a21.87,21.87,0,0,0,0-4.13l27.16-10.14-29.19,4.57a20.77,20.77,0,0,0-2.67-3.85l20.82-21.28-26.1,17.23a22.86,22.86,0,0,0-6.76-2.14L243,309.27l-6.47,26.26c-2.94.24-5.44.59-5.44.59a19.7,19.7,0,0,0-5.12,1.63l-17.85-17.14,12.58,20a35.26,35.26,0,0,0-6.11,5.88L197,345.1c-.3-5.7-.77-14.23-1.09-18.24-.54-6.17-5.54-31.08-5.73-33.86a82.51,82.51,0,0,1,.72-13.21A64.79,64.79,0,0,0,192,263.26a15.77,15.77,0,0,0-6.06-11.7V248.7l2.22-3.2s.09-1.71.09-3.94c5.44-.29,11.61-4,11.68-7.42s-2.23-4.65-2.58-5.17a5.55,5.55,0,0,1-.28-2.69,23,23,0,0,1,2.16-3.94s-2,.72-2.68.37,0-1.53.09-2.77c-.63.89-3.2,1.43-3.74,1.17a5.34,5.34,0,0,1-1.62-3c-.35.71-2.84,1.34-4.27,1.43a3.61,3.61,0,0,1-2.5-1.07l1.08-1.44.62-3.12-.53-1c2.83-.52,3.74-6.43,4.1-8.65s-.55-4.2-.82-5.27-2-4.65-2-5.25-.89-4.5-.89-4.5l-3,4s-1-.17-1.61-1.78a44.13,44.13,0,0,0-4.1,5.63l-4.45-1.52c-1.34-.45-2-.45-1.7,0a18.29,18.29,0,0,1,1.16,4.2c0,.79-2.68,3.28-3.13,5.8s.9,4.2,1,5.62a3.66,3.66,0,0,0,1.61,2.41l-.53,1.35.34,2.14,1.09.8s-.61,1.53-1.43,1.34a11.49,11.49,0,0,1-2.59-1.42s-1.16,2.94-2.49,3.22-3.41-1.61-3.41-1.61a8.5,8.5,0,0,1-1.33,2.84,7,7,0,0,1-2.67,1.45l2,2v3a5.46,5.46,0,0,0-3.12,5.1c0,3.84,7.59,6.81,7.59,6.81v4.73l3.24,4.22a8.41,8.41,0,0,1-1,3.72c-1,1.74,1.23,4.46,1.23,4.46a65,65,0,0,1,0,7.45c-1.73,3.72,1,8,2.24,9.94s2.23,7,2.23,8.68-1.23,37.25,0,47.46,3,14.13,3,14.13l.51,14.41s-5.45,7.2-7.7,11.93c-2.64,5.61-5.23,13.75-4.76,20,.61,7.95,5.65,15.89,7.07,23.84,1.5,8.28-2,11.35,7.85,15.95,2.7,1.26-3.45,21.9-3,24.83,2.16,13.15,14.2,16.11,11.52,31.2-1.81,10.18-5.53,18.93-6.3,29.36-.5,7,7,6.21,8.53,10.29,5.33,13.91-7.75,23.86-9.53,36.2-.5,3.45,5.34,6.91,5.46,7,8.29,5.09,3.13,36.42,2.63,44.22-3.09,47.52-15.46,72.61-18,120.14H137.66V687.6H86v23.22H64.57v24H47.63V650.1l-51.7-42.84V891.17L-2.92,934v146.3H1920V777.7H1740.57L1737.37,667,1920,650.12Zm-1717.83-234c-.88-2.06-4.72-4.27-4.81-5,0-.15-.06-.87-.13-2l14.63,3.56c-.49,1.12-.88,2.21-1.21,3.21l-8.37.47A2.51,2.51,0,0,0,202.17,355.72Zm6.61,24a1.55,1.55,0,0,1-1.43-1.45,64.74,64.74,0,0,1,.35-9.36c.17-1.09-1.33-3.23-1.86-4.92-.18-.56-.57-1.46-1-2.47l4.57,0c0,2.73,1.42,5.51,1.6,6.26s1,4.82,1,4.82ZM1257.69,777.7h-20.93V756.44h-16V727.53h-30.47V716.67l67.59-5.8Zm-49.86-75.61a323.65,323.65,0,0,0,49.7-19.66l-.26,11.82ZM1261.5,639l-3.18,7.3-.67,30.68a315.15,315.15,0,0,1-67.39,26.64v-5c15.29-10.13,28.65-23.31,40.07-37.53a252.84,252.84,0,0,0,24.14-36.5c2.88-5.31,5.55-10.74,8.07-16.27Zm25.27.34a36.54,36.54,0,0,1,1.82-11.69,18.78,18.78,0,0,1,1.55,1.46,30.73,30.73,0,0,1,3.82,5,34.61,34.61,0,0,1,3.7,8.35,42.14,42.14,0,0,1,1.38,7.73c-4.09,3.13-8.13,6.3-12.38,9.21Zm-.28,50.32.06-11.44.08-12.14q6.46-4.11,12.72-8.52l0,17.94,0,12.11Zm38.61-6.12-.37-34.93c0-.45,0-.81,0-1.22,2.38,1.61,4.83,3.16,7.28,4.71a43.56,43.56,0,0,1,1.57,10.19l0,5.92.08,14Zm124.4-23c3.65.7,7.37,1.15,11.1,1.56l-19.1,3C1444.23,663.63,1446.92,662.13,1449.5,660.47Zm-91.11-10.09-2-34.5a251.29,251.29,0,0,0,40.14,25.87,209,209,0,0,0,37.23,14.9,74.45,74.45,0,0,1-26.34,8.06c-15.59,1.69-31.61-1.63-46.64-7.59Zm2.88,16.74a121.9,121.9,0,0,0,24.21,6.82l-24.12,3.81ZM1529.5,777.7H1362.25l-.69-75.22,169.16-16ZM1540,548.5l-6.15,14-2.7,77a190.21,190.21,0,0,1-27.48,9.46,125.61,125.61,0,0,1-43.06,3.36c.37-.3.78-.59,1.15-.9,29.82-25.48,48.94-59.66,64.5-94.08,5.46-12.45,10.24-25.16,14.71-38Zm48.62.67a69.13,69.13,0,0,1,3.49-22.5c.67.58,1.68,1.49,3,2.81a57.46,57.46,0,0,1,7.37,9.55,66.66,66.66,0,0,1,7.12,16,82.58,82.58,0,0,1,3.28,23.34v9.81c-7.94,6.53-16.12,12.7-24.51,18.61Zm-.44,92.64.09-19.36c8.41-5.35,16.6-11.06,24.59-17l0,32.45Zm73.46-11.64V567c0-1.25.08-2.29.09-3.49,2.32-2.29,4.62-4.59,6.89-6.94A77.5,77.5,0,0,1,1675.1,571c4.67,13.75,6.44,38.28,7.27,55.87Zm70.85-11.23-1.89-38.64a428.37,428.37,0,0,0,68.24,20.87c7.1,1.49,14.27,2.77,21.46,3.86Zm127.32-20.17a312.59,312.59,0,0,1-58.81-7.58,421.81,421.81,0,0,1-71-23l-.49-10.21-6.19-17.82.13-32.86A188.23,188.23,0,0,0,1750,535.93a261.45,261.45,0,0,0,50.19,34.24,250.31,250.31,0,0,0,76.4,25.93Z"/></svg>