<svg xmlns="http://www.w3.org/2000/svg" viewBox="0 0 2023.86 825.02"><defs><style>.cls-1{isolation:isolate;}.cls-2{fill:#ba6c4a;}.cls-3{fill:#a29f9d;}.cls-4{fill:#fff;opacity:0.5;}.cls-4,.cls-8{mix-blend-mode:soft-light;}.cls-5{fill:#adadad;}.cls-6{fill:#a05638;}.cls-7{fill:#a03d22;}.cls-8{opacity:0.3;}.cls-9{fill:#6d1e08;}.cls-10{fill:#c07049;}.cls-11{fill:#c95d3b;mix-blend-mode:darken;}</style></defs><title>tc-building</title><g class="cls-1"><g id="Layer_1" data-name="Layer 1"><rect class="cls-2" x="1345.93" y="57.54" width="41.45" height="80.15"/><rect class="cls-2" x="935.04" y="343.42" width="42.81" height="58.57"/><rect class="cls-2" x="468.92" y="270.08" width="42.81" height="51.08"/><rect class="cls-2" x="738.04" y="454.11" width="484.87" height="370.91"/><polygon class="cls-3" points="1181.02 454.68 738.04 454.11 782.67 401.55 1135.73 401.55 1181.02 454.68"/><polygon class="cls-2" points="797.61 378.8 738.04 454.68 857.17 454.68 797.61 378.8"/><polygon class="cls-3" points="737.36 454.09 344.84 454.09 393.28 308.63 701.79 308.63 737.36 454.09"/><polygon class="cls-2" points="414.02 303.79 365.45 372.2 462.58 372.2 414.02 303.79"/><rect class="cls-2" x="365.45" y="372.26" width="97.13" height="81.83"/><polygon class="cls-2" points="542.51 303.79 490.32 372.2 594.69 372.2 542.51 303.79"/><rect class="cls-2" x="490.32" y="372.26" width="104.37" height="81.83"/><polygon class="cls-2" points="671.07 303.85 623.94 372.26 718.2 372.26 671.07 303.85"/><rect class="cls-2" x="623.94" y="372.26" width="94.26" height="81.91"/><rect class="cls-2" x="0.21" y="454.11" width="344.47" height="370.91"/><rect class="cls-2" x="1182.15" y="137.69" width="205.21" height="687.32"/><rect class="cls-2" x="1354.99" y="429.58" width="668.12" height="395.44"/><path class="cls-4" d="M1537.85,551.8c0-11.57-14.55-20.95-32.51-20.95s-32.5,9.38-32.5,20.95q0,.62.06,1.23h-1.08V693.48h66V553h-.06Q1537.85,552.42,1537.85,551.8Z" transform="translate(-0.14 -3.51)"/><path class="cls-4" d="M1630.3,551.8c0-11.57-14.55-20.95-32.51-20.95s-32.5,9.38-32.5,20.95q0,.62.06,1.23h-1.08V693.48h66V553h-.06Q1630.3,552.42,1630.3,551.8Z" transform="translate(-0.14 -3.51)"/><path class="cls-4" d="M1722.2,551.8c0-11.57-14.55-20.95-32.51-20.95s-32.5,9.38-32.5,20.95q0,.62.06,1.23h-1.08V693.48h66V553h-.06Q1722.2,552.42,1722.2,551.8Z" transform="translate(-0.14 -3.51)"/><path class="cls-4" d="M1815.2,551.8c0-11.57-14.55-20.95-32.5-20.95s-32.51,9.38-32.51,20.95q0,.62.06,1.23h-1.08V693.48h66V553h-.06Q1815.2,552.42,1815.2,551.8Z" transform="translate(-0.14 -3.51)"/><path class="cls-4" d="M1907.65,551.8c0-11.57-14.55-20.95-32.5-20.95s-32.51,9.38-32.51,20.95q0,.62.06,1.23h-1.08V693.48h66V553h-.06Q1907.65,552.42,1907.65,551.8Z" transform="translate(-0.14 -3.51)"/><polygon class="cls-3" points="1366.97 0 1345.87 58.12 1388.07 58.12 1366.97 0"/><polygon class="cls-3" points="956.44 291.9 935.04 343.42 977.84 343.42 956.44 291.9"/><rect class="cls-3" x="1387.35" y="373.51" width="588.2" height="56.07"/><rect class="cls-2" x="344.84" y="454.11" width="393.21" height="370.91"/><rect class="cls-5" x="1406.07" y="443.96" width="22.68" height="16.3"/><rect class="cls-5" x="1478.6" y="443.96" width="14.86" height="16.3"/><rect class="cls-5" x="1497.55" y="443.96" width="14.86" height="16.3"/><rect class="cls-5" x="1516.51" y="443.96" width="14.86" height="16.3"/><rect class="cls-5" x="1764.03" y="443.96" width="14.86" height="16.3"/><rect class="cls-5" x="1782.99" y="443.96" width="14.86" height="16.3"/><rect class="cls-5" x="1661.04" y="443.96" width="14.86" height="16.3"/><rect class="cls-5" x="1680" y="443.96" width="14.86" height="16.3"/><rect class="cls-5" x="1698.95" y="443.96" width="14.86" height="16.3"/><rect class="cls-5" x="1846.49" y="443.96" width="14.86" height="16.3"/><rect class="cls-5" x="1865.45" y="443.96" width="14.86" height="16.3"/><rect class="cls-5" x="1884.41" y="443.96" width="14.86" height="16.3"/><rect class="cls-5" x="1406.07" y="552.44" width="22.58" height="54.86"/><rect class="cls-5" x="1406.07" y="631.7" width="22.58" height="45.36"/><rect class="cls-5" x="1406.07" y="707.84" width="22.58" height="33.36"/><rect class="cls-5" x="869.09" y="472.25" width="45.36" height="45.36"/><rect class="cls-5" x="1012.58" y="472.25" width="45.36" height="45.36"/><rect class="cls-5" x="948.86" y="472.25" width="22.68" height="45.36"/><rect class="cls-5" x="975.79" y="472.25" width="22.68" height="45.36"/><rect class="cls-5" x="1073.95" y="472.25" width="27.84" height="45.36"/><rect class="cls-5" x="1107.9" y="472.25" width="27.84" height="45.36"/><rect class="cls-5" x="1143.88" y="472.25" width="27.84" height="45.36"/><rect class="cls-5" x="748.72" y="472.25" width="27.84" height="45.36"/><rect class="cls-5" x="782.67" y="472.25" width="27.84" height="45.36"/><rect class="cls-5" x="782.67" y="413.66" width="27.84" height="45.36"/><rect class="cls-5" x="818.65" y="472.25" width="27.84" height="45.36"/><rect class="cls-5" x="1478.83" y="631.7" width="11.1" height="45.36"/><rect class="cls-5" x="1492.37" y="631.7" width="11.1" height="45.36"/><rect class="cls-5" x="1476.19" y="707.84" width="11.1" height="33.36"/><rect class="cls-5" x="1489.73" y="707.84" width="11.1" height="33.36"/><rect class="cls-5" x="1508.21" y="707.84" width="11.1" height="33.36"/><rect class="cls-5" x="1521.75" y="707.84" width="11.1" height="33.36"/><rect class="cls-5" x="1498.37" y="786.67" width="13.46" height="30.06"/><rect class="cls-5" x="1478.83" y="786.67" width="13.46" height="30.06"/><path class="cls-5" d="M1492.43,767.35c-7.7,1.84-12.89,4.95-12.89,6.84a1,1,0,0,0,0,.3H1479v12.74h13.46Z" transform="translate(-0.14 -3.51)"/><path class="cls-5" d="M1512,766.24a53.83,53.83,0,0,0-6.33-.38,56,56,0,0,0-7.13.47v20.9H1512Z" transform="translate(-0.14 -3.51)"/><path class="cls-5" d="M1531.5,773.7c-.9-2-6.12-4.79-13.46-6.43v20.05h13.46Z" transform="translate(-0.14 -3.51)"/><rect class="cls-5" x="1517.91" y="786.67" width="13.46" height="30.06"/><rect class="cls-5" x="1590.93" y="786.67" width="13.46" height="30.06"/><rect class="cls-5" x="1571.39" y="786.67" width="13.46" height="30.06"/><path class="cls-5" d="M1585,767.35c-7.7,1.84-12.89,4.95-12.89,6.84a1,1,0,0,0,.05.3h-.62v12.74H1585Z" transform="translate(-0.14 -3.51)"/><path class="cls-5" d="M1604.53,766.24a54,54,0,0,0-6.33-.38,56,56,0,0,0-7.13.47v20.9h13.46Z" transform="translate(-0.14 -3.51)"/><path class="cls-5" d="M1624.06,773.7c-.9-2-6.12-4.79-13.46-6.43v20.05h13.46Z" transform="translate(-0.14 -3.51)"/><rect class="cls-5" x="1610.47" y="786.67" width="13.46" height="30.06"/><rect class="cls-5" x="1682.87" y="786.67" width="13.46" height="30.06"/><rect class="cls-5" x="1663.33" y="786.67" width="13.46" height="30.06"/><path class="cls-5" d="M1676.93,767.35c-7.7,1.84-12.89,4.95-12.89,6.84a1,1,0,0,0,0,.3h-.62v12.74h13.46Z" transform="translate(-0.14 -3.51)"/><path class="cls-5" d="M1696.47,766.24a53.83,53.83,0,0,0-6.33-.38,56,56,0,0,0-7.13.47v20.9h13.46Z" transform="translate(-0.14 -3.51)"/><path class="cls-5" d="M1716,773.7c-.9-2-6.12-4.79-13.46-6.43v20.05H1716Z" transform="translate(-0.14 -3.51)"/><rect class="cls-5" x="1702.41" y="786.67" width="13.46" height="30.06"/><rect class="cls-5" x="1775.83" y="786.67" width="13.46" height="30.06"/><rect class="cls-5" x="1756.29" y="786.67" width="13.46" height="30.06"/><path class="cls-5" d="M1769.89,767.35c-7.69,1.84-12.89,4.95-12.89,6.84a1,1,0,0,0,0,.3h-.62v12.74h13.46Z" transform="translate(-0.14 -3.51)"/><path class="cls-5" d="M1789.43,766.24a53.83,53.83,0,0,0-6.33-.38,56,56,0,0,0-7.13.47v20.9h13.46Z" transform="translate(-0.14 -3.51)"/><path class="cls-5" d="M1809,773.7c-.91-2-6.13-4.79-13.46-6.43v20.05H1809Z" transform="translate(-0.14 -3.51)"/><rect class="cls-5" x="1795.37" y="786.67" width="13.46" height="30.06"/><rect class="cls-5" x="1867.77" y="786.67" width="13.46" height="30.06"/><rect class="cls-5" x="1848.23" y="786.67" width="13.46" height="30.06"/><path class="cls-5" d="M1861.83,767.35c-7.69,1.84-12.89,4.95-12.89,6.84a1,1,0,0,0,0,.3h-.62v12.74h13.46Z" transform="translate(-0.14 -3.51)"/><path class="cls-5" d="M1881.37,766.24a53.83,53.83,0,0,0-6.33-.38,56.17,56.17,0,0,0-7.13.47v20.9h13.46Z" transform="translate(-0.14 -3.51)"/><path class="cls-5" d="M1900.91,773.7c-.91-2-6.12-4.79-13.46-6.43v20.05h13.46Z" transform="translate(-0.14 -3.51)"/><rect class="cls-5" x="1887.31" y="786.67" width="13.46" height="30.06"/><rect class="cls-5" x="1568.82" y="707.84" width="11.1" height="30.06"/><rect class="cls-5" x="1582.36" y="707.84" width="11.1" height="30.06"/><rect class="cls-5" x="1600.84" y="707.84" width="11.1" height="30.06"/><rect class="cls-5" x="1614.38" y="707.84" width="11.1" height="30.06"/><rect class="cls-5" x="1661.27" y="707.84" width="11.1" height="30.06"/><rect class="cls-5" x="1674.81" y="707.84" width="11.1" height="30.06"/><rect class="cls-5" x="1693.29" y="707.84" width="11.1" height="30.06"/><rect class="cls-5" x="1706.83" y="707.84" width="11.1" height="30.06"/><rect class="cls-5" x="1753.72" y="707.84" width="11.1" height="30.06"/><rect class="cls-5" x="1767.26" y="707.84" width="11.1" height="30.06"/><rect class="cls-5" x="1785.74" y="707.84" width="11.1" height="30.06"/><rect class="cls-5" x="1799.28" y="707.84" width="11.1" height="30.06"/><rect class="cls-5" x="1846.17" y="707.84" width="11.1" height="30.06"/><rect class="cls-5" x="1859.71" y="707.84" width="11.1" height="30.06"/><rect class="cls-5" x="1878.19" y="707.84" width="11.1" height="30.06"/><rect class="cls-5" x="1891.73" y="707.84" width="11.1" height="30.06"/><rect class="cls-5" x="1506.72" y="631.7" width="11.1" height="45.36"/><rect class="cls-5" x="1487.09" y="552.44" width="14.59" height="54.86"/><polygon class="cls-3" points="490.32 225.14 468.92 270.08 511.73 270.08 490.32 225.14"/><polygon class="cls-3" points="171.62 304.88 151.88 349.81 191.35 349.81 171.62 304.88"/><polygon class="cls-3" points="343.88 454.11 0.21 454.11 31.91 401.55 309.39 401.55 343.88 454.11"/><rect class="cls-5" x="97.57" y="472.25" width="41.83" height="45.36"/><rect class="cls-5" x="203.67" y="472.25" width="41.83" height="45.36"/><rect class="cls-5" x="143.96" y="472.25" width="20.91" height="45.36"/><rect class="cls-5" x="178.76" y="472.25" width="20.91" height="45.36"/><rect class="cls-5" x="259" y="472.25" width="25.67" height="45.36"/><rect class="cls-5" x="294.37" y="472.25" width="25.67" height="45.36"/><rect class="cls-5" x="26.99" y="472.25" width="25.67" height="45.36"/><rect class="cls-5" x="62.35" y="472.25" width="25.67" height="45.36"/><rect class="cls-5" x="17.26" y="536.44" width="40.31" height="60.85"/><rect class="cls-5" x="72.16" y="536.44" width="40.31" height="60.85"/><rect class="cls-5" x="127.07" y="536.44" width="40.31" height="60.85"/><rect class="cls-2" x="151.88" y="349.81" width="39.48" height="51.08"/><rect class="cls-5" x="181.97" y="536.44" width="40.31" height="60.85"/><rect class="cls-5" x="236.87" y="536.44" width="40.31" height="60.85"/><rect class="cls-5" x="291.78" y="536.44" width="40.31" height="60.85"/><rect class="cls-5" x="17.26" y="608.59" width="40.31" height="65.66"/><rect class="cls-5" x="72.16" y="608.59" width="40.31" height="65.66"/><rect class="cls-5" x="127.07" y="608.59" width="40.31" height="65.66"/><rect class="cls-5" x="181.97" y="608.59" width="40.31" height="65.66"/><rect class="cls-5" x="236.87" y="608.59" width="40.31" height="65.66"/><rect class="cls-5" x="291.78" y="608.59" width="40.31" height="65.66"/><rect class="cls-5" x="1505.94" y="552.44" width="14.59" height="54.86"/><rect class="cls-5" x="1578.8" y="552.44" width="14.59" height="54.86"/><rect class="cls-5" x="1597.66" y="552.44" width="14.59" height="54.86"/><rect class="cls-5" x="1670.7" y="552.44" width="14.59" height="54.86"/><rect class="cls-5" x="1689.56" y="552.44" width="14.59" height="54.86"/><rect class="cls-5" x="1763.7" y="552.44" width="14.59" height="54.86"/><rect class="cls-5" x="1782.56" y="552.44" width="14.59" height="54.86"/><rect class="cls-5" x="1857.78" y="552.44" width="14.59" height="54.86"/><rect class="cls-5" x="1876.64" y="552.44" width="14.59" height="54.86"/><rect class="cls-5" x="1520.26" y="631.7" width="11.1" height="45.36"/><rect class="cls-5" x="1572.51" y="631.7" width="11.1" height="45.36"/><rect class="cls-5" x="1586.04" y="631.7" width="11.1" height="45.36"/><rect class="cls-5" x="1600.4" y="631.7" width="11.1" height="45.36"/><rect class="cls-5" x="1613.94" y="631.7" width="11.1" height="45.36"/><rect class="cls-5" x="1664.41" y="631.7" width="11.1" height="45.36"/><rect class="cls-5" x="1677.95" y="631.7" width="11.1" height="45.36"/><rect class="cls-5" x="1692.3" y="631.7" width="11.1" height="45.36"/><rect class="cls-5" x="1705.84" y="631.7" width="11.1" height="45.36"/><rect class="cls-5" x="1756.29" y="631.7" width="11.1" height="45.36"/><rect class="cls-5" x="1769.83" y="631.7" width="11.1" height="45.36"/><rect class="cls-5" x="1784.19" y="631.7" width="11.1" height="45.36"/><rect class="cls-5" x="1797.72" y="631.7" width="11.1" height="45.36"/><rect class="cls-5" x="1848.23" y="631.7" width="11.1" height="45.36"/><rect class="cls-5" x="1861.77" y="631.7" width="11.1" height="45.36"/><rect class="cls-5" x="1876.13" y="631.7" width="11.1" height="45.36"/><rect class="cls-5" x="1889.67" y="631.7" width="11.1" height="45.36"/><rect class="cls-6" x="1182.09" y="105.07" width="15.41" height="6.17"/><rect class="cls-6" x="1207.51" y="105.07" width="15.41" height="6.17"/><rect class="cls-6" x="1346.55" y="105.07" width="15.41" height="6.17"/><rect class="cls-6" x="1371.97" y="105.07" width="15.41" height="6.17"/><rect class="cls-7" x="1270.13" y="131.52" width="30.81" height="6.17"/><rect class="cls-7" x="1227.69" y="131.52" width="30.81" height="6.17"/><rect class="cls-7" x="1306.5" y="131.52" width="30.81" height="6.17"/><polygon class="cls-2" points="1597.15 354.27 1537.58 430.15 1656.71 430.15 1597.15 354.27"/><polygon class="cls-2" points="1782.05 354.27 1722.49 430.15 1841.62 430.15 1782.05 354.27"/><polygon class="cls-2" points="1964.3 354.27 1904.73 430.15 2023.86 430.15 1964.3 354.27"/><polygon class="cls-2" points="1121.45 378.8 1061.89 454.68 1181.02 454.68 1121.45 378.8"/><polygon class="cls-2" points="54.93 379.91 0 455.79 109.86 455.79 54.93 379.91"/><rect class="cls-5" x="44.74" y="417.1" width="25.67" height="41.92"/><rect class="cls-5" x="1578.62" y="443.96" width="14.86" height="16.3"/><rect class="cls-5" x="1597.57" y="443.96" width="14.86" height="16.3"/><rect class="cls-5" x="1578.62" y="423.48" width="14.86" height="16.3"/><rect class="cls-5" x="1597.57" y="423.48" width="14.86" height="16.3"/><rect class="cls-5" x="1764.03" y="423.48" width="14.86" height="16.3"/><rect class="cls-5" x="1782.99" y="423.48" width="14.86" height="16.3"/><rect class="cls-5" x="1958.25" y="786.67" width="13.46" height="30.06"/><rect class="cls-5" x="1938.71" y="786.67" width="13.46" height="30.06"/><path class="cls-5" d="M1952.31,767.35c-7.69,1.84-12.89,4.95-12.89,6.84a1,1,0,0,0,0,.3h-.62v12.74h13.46Z" transform="translate(-0.14 -3.51)"/><path class="cls-5" d="M1971.85,766.24a53.83,53.83,0,0,0-6.33-.38,56,56,0,0,0-7.13.47v20.9h13.46Z" transform="translate(-0.14 -3.51)"/><path class="cls-5" d="M1991.39,773.7c-.91-2-6.13-4.79-13.46-6.43v20.05h13.46Z" transform="translate(-0.14 -3.51)"/><rect class="cls-5" x="1977.79" y="786.67" width="13.46" height="30.06"/><rect class="cls-5" x="1936.65" y="707.84" width="11.1" height="30.06"/><rect class="cls-5" x="1950.19" y="707.84" width="11.1" height="30.06"/><rect class="cls-5" x="1968.67" y="707.84" width="11.1" height="30.06"/><rect class="cls-5" x="1982.21" y="707.84" width="11.1" height="30.06"/><rect class="cls-5" x="1948.26" y="552.44" width="14.59" height="54.86"/><rect class="cls-5" x="1967.12" y="552.44" width="14.59" height="54.86"/><rect class="cls-5" x="1938.71" y="631.7" width="11.1" height="45.36"/><rect class="cls-5" x="1952.25" y="631.7" width="11.1" height="45.36"/><rect class="cls-5" x="1966.61" y="631.7" width="11.1" height="45.36"/><rect class="cls-5" x="1980.15" y="631.7" width="11.1" height="45.36"/><rect class="cls-5" x="1943.23" y="425.25" width="11.24" height="17.97"/><rect class="cls-5" x="1957.58" y="425.25" width="11.24" height="17.97"/><rect class="cls-5" x="1971.92" y="425.25" width="11.24" height="17.97"/><rect class="cls-5" x="393.28" y="472.25" width="18.95" height="45.36"/><rect class="cls-5" x="417.83" y="472.25" width="18.95" height="45.36"/><rect class="cls-5" x="520.16" y="472.25" width="18.95" height="45.36"/><rect class="cls-5" x="544.71" y="472.25" width="18.95" height="45.36"/><rect class="cls-5" x="649.32" y="472.25" width="18.95" height="45.36"/><rect class="cls-5" x="673.87" y="472.25" width="18.95" height="45.36"/><rect class="cls-5" x="1107.9" y="413.66" width="27.84" height="45.36"/><rect class="cls-4" x="738.04" y="689.97" width="442.97" height="135.05"/><rect class="cls-4" y="689.97" width="738.04" height="135.05"/><rect class="cls-4" x="1181.59" y="689.97" width="205.76" height="135.05"/><rect class="cls-4" x="1222.91" y="137.69" width="123.67" height="259.55"/><path class="cls-8" d="M466.25,580.24c0-11.18-21.84-49.39-48.79-49.39s-50.33,38.12-50.33,49.3v108h99.12Z" transform="translate(-0.14 -3.51)"/><path class="cls-8" d="M594.83,580.24c0-11.18-21.85-49.39-48.8-49.39s-50.32,38.12-50.32,49.3v108h99.12Z" transform="translate(-0.14 -3.51)"/><path class="cls-8" d="M718.34,580.24c0-11.18-21.85-49.39-48.8-49.39s-50.33,38.12-50.33,49.3v108h99.13Z" transform="translate(-0.14 -3.51)"/><rect class="cls-5" x="374.02" y="626" width="21.9" height="54.86"/><rect class="cls-5" x="404.74" y="626" width="21.9" height="54.86"/><rect class="cls-5" x="435.46" y="626" width="21.9" height="54.86"/><rect class="cls-5" x="374.02" y="711.04" width="21.9" height="32.23"/><rect class="cls-5" x="404.74" y="711.04" width="21.9" height="32.23"/><rect class="cls-5" x="435.46" y="711.04" width="21.9" height="32.23"/><rect class="cls-5" x="500.84" y="711.04" width="21.9" height="32.23"/><rect class="cls-5" x="531.56" y="711.04" width="21.9" height="32.23"/><rect class="cls-5" x="562.28" y="711.04" width="21.9" height="32.23"/><rect class="cls-5" x="629.41" y="711.04" width="21.9" height="32.23"/><rect class="cls-5" x="660.12" y="711.04" width="21.9" height="32.23"/><rect class="cls-5" x="690.84" y="711.04" width="21.9" height="32.23"/><rect class="cls-5" x="374.02" y="574.09" width="21.9" height="37.91"/><rect class="cls-5" x="404.74" y="574.09" width="21.9" height="37.91"/><rect class="cls-5" x="435.46" y="574.09" width="21.9" height="37.91"/><rect class="cls-5" x="503.57" y="574.09" width="21.9" height="37.91"/><rect class="cls-5" x="534.29" y="574.09" width="21.9" height="37.91"/><rect class="cls-5" x="565.01" y="574.09" width="21.9" height="37.91"/><rect class="cls-5" x="626.34" y="574.09" width="21.9" height="37.91"/><rect class="cls-5" x="657.06" y="574.09" width="21.9" height="37.91"/><rect class="cls-5" x="687.77" y="574.09" width="21.9" height="37.91"/><rect class="cls-5" x="503.57" y="626" width="21.9" height="54.86"/><rect class="cls-5" x="534.29" y="626" width="21.9" height="54.86"/><rect class="cls-5" x="565.01" y="626" width="21.9" height="54.86"/><rect class="cls-5" x="626.97" y="626" width="21.9" height="54.86"/><rect class="cls-5" x="657.69" y="626" width="21.9" height="54.86"/><rect class="cls-5" x="688.41" y="626" width="21.9" height="54.86"/><path class="cls-5" d="M396.06,537.7c-8.88,5.78-16.52,14.47-21.9,22.72v11.9h21.9Z" transform="translate(-0.14 -3.51)"/><path class="cls-5" d="M426.77,533a31.12,31.12,0,0,0-10.64-2,32.1,32.1,0,0,0-11.25,2.15v39.12h21.89Z" transform="translate(-0.14 -3.51)"/><path class="cls-5" d="M435.59,537.48v34.84h21.9V561.21C452.29,552.62,444.66,543.43,435.59,537.48Z" transform="translate(-0.14 -3.51)"/><path class="cls-5" d="M525.61,537.7c-8.87,5.78-16.52,14.47-21.9,22.72v11.9h21.9Z" transform="translate(-0.14 -3.51)"/><path class="cls-5" d="M556.33,533a31.21,31.21,0,0,0-10.64-2,32.11,32.11,0,0,0-11.26,2.15v39.12h21.9Z" transform="translate(-0.14 -3.51)"/><path class="cls-5" d="M565.14,537.48v34.84H587V561.21C581.84,552.62,574.21,543.43,565.14,537.48Z" transform="translate(-0.14 -3.51)"/><path class="cls-5" d="M649,537.7c-8.87,5.78-16.52,14.47-21.9,22.72v11.9H649Z" transform="translate(-0.14 -3.51)"/><path class="cls-5" d="M679.73,533a31.21,31.21,0,0,0-10.64-2,32.11,32.11,0,0,0-11.26,2.15v39.12h21.9Z" transform="translate(-0.14 -3.51)"/><path class="cls-5" d="M688.54,537.48v34.84h21.9V561.21C705.24,552.62,697.61,543.43,688.54,537.48Z" transform="translate(-0.14 -3.51)"/><rect class="cls-5" x="374.02" y="746.83" width="21.9" height="51.34"/><rect class="cls-5" x="404.74" y="746.83" width="21.9" height="51.34"/><rect class="cls-5" x="435.46" y="746.83" width="21.9" height="51.34"/><rect class="cls-5" x="500.84" y="746.83" width="21.9" height="51.34"/><rect class="cls-5" x="531.56" y="746.83" width="21.9" height="51.34"/><rect class="cls-5" x="562.28" y="746.83" width="21.9" height="51.34"/><rect class="cls-5" x="629.41" y="746.83" width="21.9" height="51.34"/><rect class="cls-5" x="660.12" y="746.83" width="21.9" height="51.34"/><rect class="cls-5" x="690.84" y="746.83" width="21.9" height="51.34"/><path class="cls-9" d="M984.21,715.72c0-8.35-21.16-41.92-47.26-41.92s-48.73,33.58-48.73,41.93v75.45h96Z" transform="translate(-0.14 -3.51)"/><rect class="cls-5" x="773.56" y="535.76" width="43.71" height="60.85"/><rect class="cls-5" x="870.73" y="535.76" width="43.71" height="60.85"/><rect class="cls-5" x="953.86" y="535.76" width="43.71" height="60.85"/><rect class="cls-5" x="1013.4" y="535.76" width="43.71" height="60.85"/><rect class="cls-5" x="1073.95" y="535.76" width="43.71" height="60.85"/><rect class="cls-5" x="1128.01" y="535.76" width="43.71" height="60.85"/><rect class="cls-5" x="773.56" y="604.62" width="43.71" height="65.66"/><rect class="cls-5" x="870.73" y="604.62" width="43.71" height="65.66"/><rect class="cls-5" x="953.86" y="604.62" width="43.71" height="65.66"/><rect class="cls-5" x="1013.4" y="604.62" width="43.71" height="65.66"/><rect class="cls-10" x="887.63" y="790.63" width="96.89" height="8.9"/><rect class="cls-10" x="887.63" y="802.5" width="96.89" height="8.9"/><rect class="cls-10" x="887.63" y="814.37" width="96.89" height="8.9"/><rect class="cls-5" x="1073.95" y="604.62" width="43.71" height="65.66"/><rect class="cls-5" x="1128.01" y="604.62" width="43.71" height="65.66"/><rect class="cls-5" x="1013.4" y="705.07" width="43.71" height="65.66"/><rect class="cls-5" x="775.75" y="705.07" width="43.71" height="65.66"/><rect class="cls-5" x="1081.26" y="705.73" width="37.49" height="65.66"/><rect class="cls-5" x="1127.62" y="705.73" width="37.49" height="65.66"/><rect class="cls-4" x="1222.91" y="653.5" width="123.32" height="7.88"/><rect class="cls-4" x="1222.91" y="605.03" width="123.32" height="7.88"/><rect class="cls-4" x="1222.91" y="556.15" width="123.32" height="7.88"/><rect class="cls-4" x="1222.91" y="510.64" width="123.67" height="5.26"/><rect class="cls-6" x="1182.15" y="111.19" width="40.77" height="713.82"/><rect class="cls-6" x="1346.58" y="111.19" width="40.77" height="713.82"/><rect class="cls-4" x="1181.59" y="397.26" width="206.33" height="6.51"/><rect class="cls-4" x="1387.92" y="465.55" width="635.18" height="54.08"/><rect class="cls-4" y="522.43" width="1181.02" height="3.95"/><rect class="cls-4" y="463.73" width="1387.35" height="4.38"/><rect class="cls-4" x="388.13" y="360.48" width="55.06" height="93.61"/><rect class="cls-4" x="515.73" y="360.48" width="55.06" height="93.61"/><rect class="cls-4" x="643.54" y="360.48" width="55.06" height="93.61"/><rect class="cls-4" x="1387.92" y="689.97" width="57.34" height="133.3"/><rect class="cls-4" x="1471.68" y="689.97" width="66.03" height="133.3"/><rect class="cls-4" x="1564.05" y="689.97" width="66.03" height="133.3"/><rect class="cls-4" x="1656.03" y="689.97" width="66.03" height="133.3"/><rect class="cls-4" x="1749.04" y="689.97" width="66.03" height="133.3"/><rect class="cls-4" x="1841.49" y="689.97" width="66.03" height="133.3"/><rect class="cls-4" x="1933.94" y="689.97" width="61.92" height="133.3"/><rect class="cls-11" x="1995.09" y="429.58" width="26.42" height="393.69"/><rect class="cls-11" x="1445.26" y="429.58" width="26.42" height="393.69"/><rect class="cls-11" x="1537.71" y="429.58" width="26.42" height="393.69"/><rect class="cls-11" x="1630.16" y="429.58" width="26.42" height="393.69"/><rect class="cls-11" x="1722.61" y="429.58" width="26.42" height="393.69"/><rect class="cls-11" x="1815.07" y="429.58" width="26.42" height="393.69"/><rect class="cls-11" x="1907.52" y="429.58" width="26.42" height="393.69"/><rect class="cls-5" x="1406.07" y="470.53" width="22.58" height="45.36"/><rect class="cls-5" x="1478.83" y="470.53" width="11.1" height="45.36"/><rect class="cls-5" x="1492.37" y="470.53" width="11.1" height="45.36"/><rect class="cls-5" x="1506.72" y="470.53" width="11.1" height="45.36"/><rect class="cls-5" x="1520.26" y="470.53" width="11.1" height="45.36"/><rect class="cls-5" x="1570.88" y="470.53" width="11.1" height="45.36"/><rect class="cls-5" x="1584.42" y="470.53" width="11.1" height="45.36"/><rect class="cls-5" x="1598.77" y="470.53" width="11.1" height="45.36"/><rect class="cls-5" x="1612.31" y="470.53" width="11.1" height="45.36"/><rect class="cls-5" x="1662.78" y="470.53" width="11.1" height="45.36"/><rect class="cls-5" x="1676.32" y="470.53" width="11.1" height="45.36"/><rect class="cls-5" x="1690.67" y="470.53" width="11.1" height="45.36"/><rect class="cls-5" x="1704.21" y="470.53" width="11.1" height="45.36"/><rect class="cls-5" x="1755.78" y="470.53" width="11.1" height="45.36"/><rect class="cls-5" x="1769.32" y="470.53" width="11.1" height="45.36"/><rect class="cls-5" x="1783.68" y="470.53" width="11.1" height="45.36"/><rect class="cls-5" x="1797.21" y="470.53" width="11.1" height="45.36"/><rect class="cls-5" x="1848.23" y="470.53" width="11.1" height="45.36"/><rect class="cls-5" x="1861.77" y="470.53" width="11.1" height="45.36"/><rect class="cls-5" x="1876.13" y="470.53" width="11.1" height="45.36"/><rect class="cls-5" x="1889.67" y="470.53" width="11.1" height="45.36"/><rect class="cls-5" x="1944.16" y="448.76" width="11.1" height="50.02"/><rect class="cls-5" x="1958.52" y="448.76" width="11.1" height="50.02"/><rect class="cls-5" x="1972.05" y="448.76" width="11.1" height="50.02"/><rect class="cls-5" x="199.67" y="705.73" width="40.31" height="65.66"/><rect class="cls-5" x="74.22" y="705.73" width="40.31" height="65.66"/><rect class="cls-5" x="127.07" y="705.73" width="40.31" height="65.66"/><rect class="cls-5" x="19.29" y="705.07" width="40.31" height="65.66"/><rect class="cls-5" x="248.67" y="705.73" width="34.57" height="65.66"/><rect class="cls-5" x="291.42" y="705.73" width="34.57" height="65.66"/><path class="cls-5" d="M1259.42,192.2c0-12.6-6-22.81-13.44-22.81s-13.43,10.21-13.43,22.81c0,.45,0,.89,0,1.34h-.45v153h27.29v-153h0C1259.41,193.09,1259.42,192.65,1259.42,192.2Z" transform="translate(-0.14 -3.51)"/><path class="cls-5" d="M1300.11,192.2c0-12.6-6.36-22.81-14.21-22.81s-14.21,10.21-14.21,22.81c0,.45,0,.89,0,1.34h-.47v153h28.87v-153h0C1300.1,193.09,1300.11,192.65,1300.11,192.2Z" transform="translate(-0.14 -3.51)"/><path class="cls-5" d="M1335.11,192.2c0-12.6-5.76-22.81-12.87-22.81s-12.86,10.21-12.86,22.81c0,.45,0,.89,0,1.34H1309v153h26.13v-153h0C1335.1,193.09,1335.11,192.65,1335.11,192.2Z" transform="translate(-0.14 -3.51)"/><rect class="cls-5" x="1270.22" y="662.13" width="11.1" height="27.84"/><rect class="cls-5" x="1286.4" y="662.13" width="11.1" height="27.84"/><rect class="cls-5" x="1231.99" y="662.13" width="11.1" height="27.84"/><rect class="cls-5" x="1248.17" y="662.13" width="11.1" height="27.84"/><rect class="cls-5" x="1307.68" y="662.13" width="11.1" height="27.84"/><rect class="cls-5" x="1323.87" y="662.13" width="11.1" height="27.84"/><rect class="cls-5" x="1270.22" y="613.32" width="11.1" height="40.11"/><rect class="cls-5" x="1286.4" y="613.32" width="11.1" height="40.11"/><rect class="cls-5" x="1231.99" y="613.32" width="11.1" height="40.11"/><rect class="cls-5" x="1248.17" y="613.32" width="11.1" height="40.11"/><rect class="cls-5" x="1307.68" y="613.32" width="11.1" height="40.11"/><rect class="cls-5" x="1323.87" y="613.32" width="11.1" height="40.11"/><rect class="cls-5" x="1270.22" y="564.52" width="11.1" height="40.11"/><rect class="cls-5" x="1286.4" y="564.52" width="11.1" height="40.11"/><rect class="cls-5" x="1231.99" y="564.52" width="11.1" height="40.11"/><rect class="cls-5" x="1248.17" y="564.52" width="11.1" height="40.11"/><rect class="cls-5" x="1307.68" y="564.52" width="11.1" height="40.11"/><rect class="cls-5" x="1323.87" y="564.52" width="11.1" height="40.11"/><rect class="cls-5" x="1270.22" y="515.71" width="11.1" height="40.11"/><rect class="cls-5" x="1286.4" y="515.71" width="11.1" height="40.11"/><rect class="cls-5" x="1231.99" y="515.71" width="11.1" height="40.11"/><rect class="cls-5" x="1248.17" y="515.71" width="11.1" height="40.11"/><rect class="cls-5" x="1307.68" y="515.71" width="11.1" height="40.11"/><rect class="cls-5" x="1323.87" y="515.71" width="11.1" height="40.11"/><rect class="cls-5" x="1270.22" y="468.11" width="11.1" height="42.53"/><rect class="cls-5" x="1286.4" y="468.11" width="11.1" height="42.53"/><rect class="cls-5" x="1231.99" y="468.11" width="11.1" height="42.53"/><rect class="cls-5" x="1248.17" y="468.11" width="11.1" height="42.53"/><rect class="cls-5" x="1307.68" y="468.11" width="11.1" height="42.53"/><rect class="cls-5" x="1323.87" y="468.11" width="11.1" height="42.53"/><rect class="cls-5" x="1270.22" y="403.77" width="11.1" height="59.96"/><rect class="cls-5" x="1286.4" y="403.77" width="11.1" height="59.96"/><rect class="cls-5" x="1231.99" y="403.77" width="11.1" height="59.96"/><rect class="cls-5" x="1248.17" y="403.77" width="11.1" height="59.96"/><rect class="cls-5" x="1307.68" y="403.77" width="11.1" height="59.96"/><rect class="cls-5" x="1323.87" y="403.77" width="11.1" height="59.96"/><rect class="cls-5" x="1270.22" y="353.7" width="11.1" height="43.55"/><rect class="cls-5" x="1286.4" y="353.7" width="11.1" height="43.55"/><rect class="cls-5" x="1231.99" y="353.7" width="11.1" height="43.55"/><rect class="cls-5" x="1248.17" y="353.7" width="11.1" height="43.55"/><rect class="cls-5" x="1307.68" y="353.7" width="11.1" height="43.55"/><rect class="cls-5" x="1323.87" y="353.7" width="11.1" height="43.55"/><path class="cls-9" d="M1333.79,756.82c0-7.94-21.16-39.84-47.26-39.84s-48.73,31.91-48.73,39.85v71.7h96Z" transform="translate(-0.14 -3.51)"/><rect class="cls-5" x="393.28" y="395.48" width="18.95" height="53.46"/><rect class="cls-5" x="417.83" y="395.48" width="18.95" height="53.46"/><rect class="cls-5" x="393.28" y="365.76" width="18.95" height="23.78"/><rect class="cls-5" x="417.83" y="365.76" width="18.95" height="23.78"/><rect class="cls-5" x="520.76" y="395.48" width="18.95" height="53.46"/><rect class="cls-5" x="545.31" y="395.48" width="18.95" height="53.46"/><rect class="cls-5" x="520.76" y="365.76" width="18.95" height="23.78"/><rect class="cls-5" x="545.31" y="365.76" width="18.95" height="23.78"/><rect class="cls-5" x="649.32" y="395.48" width="18.95" height="53.46"/><rect class="cls-5" x="673.87" y="395.48" width="18.95" height="53.46"/><rect class="cls-5" x="649.32" y="365.76" width="18.95" height="23.78"/><rect class="cls-5" x="673.87" y="365.76" width="18.95" height="23.78"/></g></g></svg>